<?xml version="1.0" encoding="UTF-8"?><svg id="uuid-28215cad-aacb-435a-9049-9396d8605322" xmlns="http://www.w3.org/2000/svg" viewBox="0 0 63.89 48.05"><g id="uuid-1693f15d-4ce4-44b6-9084-d0e5068606f9"><g id="uuid-ff5679af-c8ce-4b3c-a974-2b9ec0e98adc"><rect x="7.13" y="36.97" width="2.84" height="11.99" rx=".37" ry=".37" transform="translate(-17.43 78.23) rotate(-132.38)" style="fill:#27aee5;"/><path d="M5.29,47.9h-3.29v-10.53h3.29v10.53Z" style="fill:#174681;"/><path d="M17.16,48.05h-1.93c-1.67,0-2.9-.34-3.69-1.03-.79-.69-1.18-1.76-1.18-3.21v-2.34c0-1.45.39-2.52,1.18-3.21.79-.69,2.02-1.03,3.69-1.03h1.93c1.67,0,2.9.34,3.69,1.03.79.69,1.18,1.76,1.18,3.21v2.34c0,1.45-.39,2.52-1.18,3.21-.79.69-2.02,1.03-3.69,1.03ZM16.93,45.48c.67,0,1.13-.12,1.4-.37.27-.24.4-.66.4-1.26v-2.43c0-.6-.13-1.02-.4-1.26-.27-.24-.74-.37-1.4-.37h-1.48c-.67,0-1.13.12-1.4.37-.27.24-.4.66-.4,1.26v2.43c0,.6.13,1.02.4,1.26.27.24.74.37,1.4.37h1.48Z" style="fill:#174681;"/><path d="M26.67,37.25h9.83l-.19,1.39c-.03.21-.1.36-.21.46-.11.09-.28.14-.51.14h-2.78v8.51h-2.45v-8.51h-2.76c-.23,0-.4-.05-.51-.14-.11-.09-.18-.25-.21-.46l-.21-1.39Z" style="fill:#174681;"/><path d="M36.12,44.66v-1.9c0-1.04.29-1.82.87-2.35.58-.53,1.49-.8,2.72-.8h.82c1.23,0,2.15.27,2.73.8.59.53.88,1.32.88,2.35v1.1c0,.43-.22.64-.67.64h-5.08v.13c0,.43.11.74.32.93.21.19.56.28,1.05.28h3.23c.41,0,.64.2.7.6l.18,1.3h-4.17c-1.24,0-2.16-.26-2.73-.78-.58-.52-.87-1.29-.87-2.31ZM41.91,42.93v-.19c0-.45-.1-.76-.31-.95-.21-.18-.57-.28-1.09-.28h-.7c-.52,0-.88.09-1.09.28-.21.18-.31.5-.31.95v.19h3.51Z" style="fill:#174681;"/><path d="M52.68,47.75h-3.84c-1.24,0-2.16-.26-2.73-.78-.58-.52-.87-1.29-.87-2.31v-1.82c0-1.03.29-1.8.87-2.31.58-.52,1.49-.78,2.73-.78h3.84l-.18,1.3c-.06.4-.29.6-.7.6h-2.9c-.5,0-.85.09-1.06.28-.21.19-.31.49-.31.91v1.81c0,.43.1.74.31.93.21.19.56.28,1.06.28h2.9c.41,0,.64.2.7.6l.18,1.3Z" style="fill:#174681;"/><path d="M56.17,36.84v3.63h.06c.37-.57,1.02-.85,1.96-.85h.79c.93,0,1.62.25,2.09.75.47.5.7,1.23.7,2.21v5.18h-2.36v-4.97c0-.46-.1-.78-.3-.98-.2-.19-.55-.29-1.06-.29h-.52c-.51,0-.86.1-1.06.3-.2.2-.3.52-.3.97v4.97h-2.36v-10.91h2.36Z" style="fill:#174681;"/><path d="M31.4.68c-1.27-.44-2.65-.68-4.09-.68-4.71,0-8.76,2.64-10.74,6.97-1.32-.75-2.92-1.32-4.33-1.32-2.92,0-6.31,1.79-6.59,6.87-3.48,1.32-5.65,4.52-5.65,8.38,0,5.09,4.24,9.23,9.42,9.23h11.81L31.4.68Z" style="fill:#27aee5;"/><rect x="28.09" y="1.59" width="5.26" height="30.16" rx="2.62" ry="2.62" transform="translate(7.1 -9.09) rotate(19)" style="fill:#127abf;"/><rect x="35.09" y="6.91" width="5.26" height="22.72" rx="2.62" ry="2.62" transform="translate(8 -11.29) rotate(19)" style="fill:#127abf;"/><path d="M40.74,22.57l-1.14,3.3h1.07c.91.01,1.66-.72,1.67-1.64,0-.9-.71-1.64-1.6-1.67Z" style="fill:#27aee5;"/><path d="M42.64,17.05l6.29.05c.57.99,1.62,1.67,2.84,1.68,1.83.01,3.33-1.46,3.34-3.29.01-1.83-1.46-3.33-3.29-3.34-1.22,0-2.29.65-2.87,1.64l-5.18-.04-1.14,3.31Z" style="fill:#27aee5;"/><path d="M56.18,21.02c-1.22,0-2.29.65-2.87,1.64l-4.96-.04-1.72-3.52c-.28-.57-.85-.92-1.48-.93l-2.89-.02-1.14,3.31,2.98.02,1.72,3.52c.28.57.85.92,1.48.93l5.98.04c.57.99,1.62,1.67,2.84,1.68,1.83.01,3.33-1.46,3.34-3.29.01-1.83-1.46-3.33-3.29-3.34Z" style="fill:#27aee5;"/><path d="M58.44,14.41c-.61,0-1.11.49-1.11,1.1,0,.61.49,1.11,1.1,1.11.61,0,1.11-.49,1.11-1.1,0-.61-.49-1.11-1.1-1.11Z" style="fill:#27aee5;"/><path d="M62.79,23.28c-.61,0-1.11.49-1.11,1.1,0,.61.49,1.11,1.1,1.11.61,0,1.11-.49,1.11-1.1,0-.61-.49-1.11-1.1-1.11Z" style="fill:#27aee5;"/></g></g></svg>