<?xml version="1.0" encoding="UTF-8"?><svg id="uuid-f777a031-9126-4eff-afdf-972a6142853f" xmlns="http://www.w3.org/2000/svg" viewBox="0 0 226.77 38.19"><g id="uuid-d6019ca6-f45b-43c5-8552-fe2cd98db2f3"><path d="M38.19,19.1c0,10.55-8.55,19.1-19.1,19.1h0C8.55,38.19,0,29.64,0,19.1h0C0,8.55,8.55,0,19.1,0h0c10.55,0,19.1,8.55,19.1,19.1h0ZM24.29,2.42s.08-.05.07-.1c0-.04-.04-.07-.07-.07l-4.37-.88s-.1.02-.11.07c0,.04,0,.08.04.1l2,1.34s.04.02.07.01l2.37-.46ZM12.27,2.5c-1.08.35-2.1.84-3.06,1.46-1.07.53-2.01,1.25-2.8,2.14-.7.59-1.33,1.23-1.89,1.95-.06.07-.09.15-.08.23,0,.21.06.37.18.48.48,1.18,1.16,2.24,2.04,3.19l1.27,1.47c.04.05.12.06.17.02,0,0,.01-.01.02-.02l.71-.91,2.33-2.68,1.92-1.82c1.53-1.28,3.17-2.41,4.9-3.36.04-.02.06-.07.04-.1,0,0,0-.01-.01-.02-1.1-.98-2.28-1.83-3.56-2.56-.09-.05-.18-.07-.25-.05l-1.91.57ZM31.12,16.31c.63,2.3.95,4.65.96,7.05l-.27,3.71c0,.08.04.14.11.16.91.21,1.83.26,2.76.13.95.47,1.55-1.9,1.8-2.7,1.35-4.94.74-9.58-1.84-13.93-.51-.97-1.13-1.85-1.87-2.63-1-1.22-2.16-2.28-3.47-3.18-.07-.04-.15-.06-.24-.05-1.25.17-2.46.53-3.61,1.06-.07.03-.09.11-.06.18,0,.01.01.02.02.04,2.66,2.93,4.56,6.32,5.7,10.16h0ZM18.64,10.58l-1.54,1.52c-1.66,1.69-3.2,3.48-4.62,5.37-.04.06-.03.14.02.18,3.91,3.22,8.22,5.76,12.94,7.62.58.34,1.19.59,1.85.72.06.01.11-.02.12-.08,0,0,0-.02,0-.03l-.09-2.85c-.14-1.75-.45-3.47-.93-5.16l-1.27-3.44c-.95-2.15-2.14-4.17-3.58-6.04-.05-.07-.15-.08-.22-.03,0,0,0,0,0,0l-2.68,2.2ZM3.54,26.57c-.02-2.66.7-5.38,1.74-7.86.03-.07.02-.16-.03-.22-1.4-1.81-2.42-3.81-3.06-6.01-.05-.16-.1-.16-.16.01-1.59,4.92-1.16,9.63,1.3,14.13.14.25.2.23.2-.05ZM9.05,23.27c-.18.18-.29.42-.33.72-1.07,2.17-1.72,4.46-1.93,6.89,0,.08.02.16.08.22,1.33,1.36,2.85,2.44,4.57,3.21.85.55,1.76.98,2.74,1.27,1.63.57,3.32.89,5.06.96,1.29.13,2.58.07,3.87-.2.72-.06,1.42-.23,2.11-.51.08-.03.15-.1.19-.18.63-1.35,1.11-2.75,1.44-4.21.01-.06-.04-.12-.12-.13,0,0,0,0,0,0l-3.68-.74-2.55-.78c-2.86-1.11-5.57-2.51-8.13-4.21-.37-.42-.8-.72-1.3-.92-.54-.57-1.96-2.03-2-1.37h0ZM30.61,31.59l-1.03,2.09c-.12.24-.07.28.13.14,1.05-.75,2.02-1.57,2.93-2.48.03-.03.04-.05.03-.07l-.03-.03s-.1-.06-.14-.04c-.56.2-1.13.28-1.72.24-.06,0-.13.06-.18.15Z" style="fill:#167cc1;"/><path d="M24.29,2.42l-2.37.46s-.05,0-.07-.01l-2-1.34s-.06-.08-.03-.12c.02-.03.06-.05.1-.04l4.37.88s.08.05.07.1c0,.04-.04.07-.07.07ZM13.07,8.01l-2.9-1.1c-.07-.03-.1-.1-.08-.16.55-1.51,1.27-2.93,2.18-4.26l1.91-.57c.07-.02.16,0,.25.05,1.27.73,2.46,1.58,3.56,2.56.03.03.03.07,0,.1,0,0-.01.01-.02.02-1.73.96-3.37,2.08-4.9,3.36Z" style="fill:#fff;"/><path d="M12.27,2.5c-.91,1.33-1.64,2.75-2.18,4.26-.02.06.01.13.08.16l2.9,1.1-1.92,1.82-1.73-.5c-.06-.02-.13.03-.16.1,0,0,0,0,0,0-.24.99-.38,2.02-.44,3.08l-.71.91c-.04.05-.11.06-.17.01,0,0-.01-.01-.02-.02l-1.27-1.47.54-2.96c.01-.07-.03-.13-.09-.14,0,0-.01,0-.02,0l-2.48-.08c-.12-.11-.18-.27-.18-.48,0-.08.03-.16.08-.23.57-.71,1.2-1.36,1.89-1.95l1.47.18c.07,0,.14-.03.18-.1l1.16-2.23c.95-.63,1.97-1.12,3.06-1.46Z" style="fill:#12273d;"/><path d="M9.22,3.96l-1.16,2.23c-.03.07-.11.11-.18.1l-1.47-.18c.79-.89,1.73-1.61,2.8-2.14ZM32.77,8.1c.11,2.88-.44,5.61-1.65,8.22-1.14-3.84-3.04-7.23-5.7-10.16-.05-.06-.05-.15,0-.2,0,0,.02-.02.03-.02,1.15-.54,2.35-.89,3.61-1.06.09-.01.18,0,.24.05,1.31.9,2.47,1.96,3.47,3.18h0Z" style="fill:#fff;"/><path d="M32.77,8.1c.74.78,1.36,1.66,1.87,2.63-.29,3.18-1.18,6.14-2.67,8.89-.04.06-.02.14.04.2,1.63,1.46,3.12,3.07,4.47,4.84-.25.8-.85,3.17-1.8,2.7-.63-1.49-1.49-2.82-2.6-4-.01-2.4-.33-4.75-.96-7.05,1.2-2.6,1.75-5.34,1.65-8.22h0Z" style="fill:#12273d;"/><path d="M25.12,14.45l-6.48-3.87,2.68-2.2c.07-.05.16-.04.22.03,0,0,0,0,0,0,1.44,1.88,2.64,3.89,3.58,6.04ZM4.62,8.76l2.48.08c.06,0,.11.06.1.13,0,0,0,.01,0,.02l-.54,2.96c-.88-.95-1.56-2.01-2.04-3.19ZM11.15,9.83l-2.33,2.68c.06-1.06.21-2.09.44-3.08.02-.07.09-.12.15-.11,0,0,0,0,0,0l1.73.5Z" style="fill:#fff;"/><path d="M57.84,19.55c.23,3.65,4.03,5.49,6.97,3.19.19-.15.53-.49,1.02-1.01.05-.05.14-.06.21,0l3.39,2.41c.07.05.09.14.04.21-2.6,3.53-6.8,4.67-10.85,3.24-5.1-1.81-7.12-7.7-4.89-12.5,2.84-6.08,11.62-6.77,15.57-1.6.07.09.05.22-.04.29l-3.24,2.49c-.13.1-.33.09-.44-.03-1.58-1.63-3.51-2.47-5.61-1.22-1.55.92-2.26,2.43-2.13,4.54h0ZM78.89,18.21l.02,9.48c0,.07-.05.13-.12.13h-4.52c-.07,0-.13-.08-.13-.18V10.5c0-.07.06-.13.13-.13h4.9c.05,0,.12.05.18.14l4,6.45s.09.06.14.03c.01,0,.02-.02.03-.03l3.98-6.46c.05-.08.12-.13.19-.13h4.9c.07,0,.13.06.13.13v17.19c0,.07-.06.13-.13.13h-4.58c-.07,0-.12-.06-.12-.12,0,0,0,0,0,0v-9.69c0-.16-.04-.16-.15,0l-4.26,6.56c-.04.06-.12.08-.19.04-.02-.01-.03-.02-.04-.04l-4.2-6.43c-.11-.17-.17-.15-.17.08ZM112.03,18.14c0-.23-.06-.25-.17-.08l-4.23,6.46c-.05.07-.15.09-.22.04-.02-.01-.04-.03-.05-.05l-4.22-6.48c-.09-.13-.13-.12-.13.05l.02,9.61c0,.07-.05.13-.12.13h-4.46c-.08,0-.15-.06-.15-.13h0V10.5c0-.07.07-.13.15-.13h4.84c.07,0,.14.05.19.13l3.96,6.41c.04.07.13.09.19.05.02-.01.03-.03.05-.04l3.96-6.42c.05-.08.14-.13.25-.13h4.84c.07,0,.13.06.13.13v17.19c0,.07-.06.13-.13.13h-4.58c-.07,0-.12-.06-.12-.13h0s.02-9.55.02-9.55h0Z" style="fill:#12273d;"/><rect x="122.57" y="10.38" width="4.84" height="17.44" rx=".07" ry=".07" style="fill:#12273d;"/><path d="M133.98,27.68c-.12-4.81.09-9.64.02-17.14,0-.07.06-.13.13-.13h0c3.48-.09,5.77-.09,6.85,0,11.2.97,11.06,16.45.03,17.37-.71.06-3.01.07-6.9.02-.07,0-.13-.06-.13-.13h0ZM145.88,23.31c2.06-2.75,1.82-6.61-.54-9.04-2.48-2.56-5.96-2.03-9.24-2.08-.05,0-.1.04-.1.09,0,0,0,0,0,0v13.56c0,.07.06.12.13.12h0c3.82.07,7.45.42,9.75-2.65ZM158.09,26.03h10.5c.11,0,.19.06.19.13v1.53c0,.07-.09.13-.19.13h-12.48c-.07,0-.13-.06-.13-.13V10.5c0-.07.06-.13.13-.13h12.35c.11,0,.19.06.19.13h0v1.53c0,.07-.09.13-.19.13h-10.37s-.09.06-.09.13v5.73c0,.07.04.12.09.12h9.29c.07,0,.13.06.13.13v1.53c0,.07-.06.13-.13.13h-9.23c-.08,0-.15.06-.15.14h0v5.84c0,.07.04.12.08.12h0ZM182.05,25.19c.05.11.09.11.14,0l6.08-14.62c.05-.12.17-.2.31-.2h1.78s.08.05.08.1c0,.01,0,.03,0,.04l-7.37,17.25c-.05.1-.13.17-.21.17h-1.46c-.11,0-.21-.07-.26-.19l-7.37-17.25s-.01-.1.02-.12c0,0,.02,0,.03,0h1.97c.08,0,.17.07.21.18l6.06,14.63h0ZM206.23,10.46c.02-.05.06-.08.1-.08h1.59s.08.04.07.09c0,.01,0,.03-.01.04l-8.6,17.16c-.04.09-.11.14-.18.15h-1.53c-.06,0-.1-.06-.09-.14,0-.02,0-.04.02-.06l8.62-17.15h0ZM18.64,10.58l6.48,3.87,1.27,3.44c-2.92-2.22-6.01-4.15-9.29-5.79l1.54-1.52Z" style="fill:#12273d;"/><path d="M34.64,10.73c2.57,4.35,3.19,8.99,1.84,13.93-1.35-1.77-2.84-3.38-4.47-4.84-.06-.05-.07-.13-.04-.2,1.5-2.75,2.39-5.71,2.67-8.89h0ZM17.1,12.1c3.28,1.64,6.38,3.57,9.29,5.79.48,1.69.79,3.4.93,5.16l-1.88,2.23c-4.72-1.86-9.03-4.4-12.94-7.62-.06-.05-.07-.13-.02-.18,1.42-1.9,2.96-3.69,4.62-5.37ZM145.88,23.31c-2.3,3.07-5.93,2.72-9.75,2.65-.07,0-.13-.05-.13-.12h0v-13.56s.04-.09.09-.09c0,0,0,0,0,0,3.28.05,6.76-.48,9.24,2.08,2.36,2.43,2.61,6.28.54,9.04ZM5.28,18.72c-1.04,2.47-1.76,5.2-1.74,7.86,0,.29-.06.3-.2.05C.88,22.12.44,17.42,2.03,12.5c.05-.17.11-.18.16-.01.64,2.2,1.66,4.2,3.06,6.01.05.06.06.15.03.22Z" style="fill:#fff;"/><path d="M11.05,24.64c-.79-.27-1.46-.73-2-1.37.05-.65,1.46.81,2,1.37Z" style="fill:#082018;"/><path d="M27.32,23.04l.09,2.85c0,.06-.04.11-.1.11,0,0-.02,0-.03,0-.66-.14-1.27-.38-1.85-.72l1.88-2.23ZM9.05,23.27c.55.64,1.22,1.1,2,1.37.5.2.93.51,1.3.92,1.35,2.32,2.97,4.42,4.86,6.3.05.05.13.06.2.02l3.08-2.1,2.55.78c-1.24,1.06-2.56,2.01-3.95,2.87-.04.03-.06.08-.03.13,0,0,.01.02.02.02,1.24,1.08,2.58,2,4.04,2.76-1.29.27-2.58.34-3.87.2l-2.4-1.86c-.06-.05-.14-.06-.22-.03l-2.45.93c-.97-.3-1.88-.72-2.74-1.27,1.21-.27,2.39-.65,3.54-1.15.07-.03.1-.11.07-.17,0-.01-.02-.03-.03-.04-2.63-2.62-4.73-5.6-6.3-8.96.04-.3.15-.54.33-.72Z" style="fill:#12273d;"/><path d="M32.08,23.36c1.11,1.18,1.97,2.51,2.6,4-.93.12-1.85.08-2.76-.13-.07-.02-.11-.08-.11-.16l.27-3.71h0ZM8.72,23.99c1.57,3.35,3.67,6.34,6.3,8.96.05.05.05.14,0,.19-.01.01-.02.02-.04.03-1.15.5-2.33.88-3.54,1.15-1.72-.78-3.24-1.85-4.57-3.21-.06-.06-.08-.14-.08-.22.21-2.43.86-4.72,1.93-6.89h0ZM20.48,29.78l-3.08,2.1c-.06.04-.14.03-.2-.02-1.89-1.87-3.51-3.97-4.86-6.3,2.56,1.7,5.27,3.1,8.13,4.21ZM23.03,30.56l3.68.74c.08.02.13.07.12.13,0,0,0,0,0,0-.32,1.46-.8,2.86-1.44,4.21-.04.08-.1.15-.19.18-.68.28-1.39.45-2.11.51-1.45-.77-2.8-1.69-4.04-2.76-.04-.03-.04-.09-.01-.13,0,0,.01-.01.02-.02,1.39-.86,2.71-1.81,3.95-2.87ZM30.61,31.59c.04-.09.11-.15.18-.15.59.03,1.17-.05,1.72-.24.05-.02.1,0,.14.04l.03.03s0,.04-.03.07c-.91.91-1.89,1.73-2.93,2.48-.21.15-.25.1-.13-.14l1.03-2.09Z" style="fill:#fff;"/><path d="M19.23,36.55c-1.74-.07-3.43-.39-5.06-.96l2.45-.93c.07-.03.16-.02.22.03l2.4,1.86h0Z" style="fill:#fff;"/><path d="M219.32,28.16c-1.17,0-2.35-.15-3.54-.44-1.19-.29-2.22-.71-3.08-1.25l1.74-3.64c.7.46,1.46.81,2.29,1.05.82.24,1.64.37,2.46.37s1.47-.16,1.98-.48c.5-.32.76-.76.76-1.33,0-.34-.1-.65-.29-.92-.2-.27-.53-.47-1-.61-.47-.14-1.15-.21-2.03-.21h-4.64l.86-10h10.9v3.74h-9.19l2.47-2.13-.56,6.75-2.47-2.13h3.79c1.69,0,3.06.24,4.08.72,1.03.48,1.78,1.12,2.25,1.93s.71,1.72.71,2.73-.27,1.96-.79,2.85c-.53.89-1.34,1.61-2.43,2.16-1.09.55-2.5.83-4.23.83Z" style="fill:#12273d;"/></g></svg>