<?xml version="1.0" encoding="UTF-8"?><svg id="uuid-1d70032a-5672-4183-96bb-27179f54c762" xmlns="http://www.w3.org/2000/svg" viewBox="0 0 226.77 38.16"><g id="uuid-d3b2f882-7a13-4d70-a80b-637729b27218"><path d="M38.16,19.08c0,10.54-8.54,19.08-19.08,19.08h0C8.54,38.16,0,29.61,0,19.08h0C0,8.54,8.54,0,19.08,0h0c10.54,0,19.08,8.54,19.08,19.08h0ZM19.98,1.66l1.86,1.19c.08.05.17.07.25.05l2-.46c.29-.07.28-.14-.02-.22-1.32-.34-2.66-.62-4.01-.81-.41-.06-.43.03-.07.26h0ZM12.29,2.48c-1.1.33-2.12.81-3.07,1.45-1.08.53-2.01,1.25-2.79,2.15-.68.55-1.29,1.17-1.85,1.85-.22.27-.22.55.01.83.53,1.17,1.22,2.23,2.08,3.18.38.56.82,1.06,1.33,1.49.05.04.12.04.16,0,0,0,0,0,0-.01l.65-.94,2.37-2.7,1.86-1.77c1.51-1.28,3.13-2.4,4.86-3.38.05-.03.06-.09.03-.14,0-.01-.01-.02-.02-.03-1.09-.96-2.26-1.8-3.52-2.53-.09-.05-.18-.07-.26-.04l-1.86.58ZM31.08,16.3c.64,2.31.97,4.68.97,7.09l-.31,3.67c0,.07.04.14.11.16.92.21,1.85.24,2.8.1.86.63,1.62-2.15,1.76-2.63,1.35-4.96.74-9.63-1.82-14.03-.48-.95-1.11-1.79-1.87-2.52-.98-1.29-2.16-2.38-3.51-3.27-.05-.03-.13-.05-.23-.03-1.22.19-2.4.54-3.53,1.05-.09.04-.13.14-.1.22,0,.01.01.03.03.04,2.68,2.93,4.58,6.31,5.7,10.14ZM18.65,10.6c-.63.35-1.16.84-1.57,1.47-1.66,1.66-3.19,3.46-4.6,5.38-.04.06-.03.14.02.19,3.9,3.2,8.2,5.74,12.89,7.6l1.85.77s.1,0,.12-.06c0-.01,0-.02,0-.03.06-.96.02-1.91-.12-2.86-.1-1.77-.4-3.51-.9-5.21-.3-1.19-.72-2.34-1.27-3.44-.93-2.15-2.11-4.16-3.54-6.01-.04-.06-.12-.07-.18-.03-.98.63-1.88,1.37-2.69,2.21h0ZM3.57,26.55c-.07-2.64.68-5.44,1.69-7.86.03-.08.03-.15-.01-.2-1.36-1.78-2.37-3.75-3.02-5.9-.07-.23-.14-.24-.21-.02-1.56,4.89-1.11,9.57,1.34,14.03.15.27.22.25.21-.05ZM8.72,23.91c-1.07,2.21-1.7,4.55-1.89,7,0,.08.02.16.08.22,1.31,1.28,2.79,2.33,4.43,3.17.91.57,1.88.99,2.92,1.26,1.61.6,3.27.91,4.98.94,1.3.18,2.59.12,3.87-.19l1.94-.45c.14-.03.26-.13.32-.26.62-1.34,1.09-2.74,1.41-4.19.01-.06-.04-.12-.12-.14l-3.63-.74-2.63-.83c-2.83-1.08-5.51-2.46-8.03-4.14l-3.1-2.56s-.12-.04-.16,0c0,0-.01.01-.01.02l-.4.87ZM30.51,31.63c-.22.69-.53,1.34-.92,1.94-.23.35-.18.41.17.17,1.02-.73,1.98-1.53,2.87-2.41.03-.03.04-.06.02-.08l-.03-.03s-.11-.04-.19-.02c-.52.17-1.06.24-1.61.22-.14,0-.26.08-.3.21Z" style="fill:#10a651;"/><path d="M19.98,1.66c-.36-.23-.34-.32.07-.26,1.35.2,2.69.47,4.01.81.3.08.31.15.02.22l-2,.46c-.08.02-.17,0-.25-.05l-1.86-1.19h0ZM13.05,8.01l-2.94-1.1c-.07-.03-.1-.1-.08-.16,0,0,0,0,0,0,.58-1.51,1.34-2.93,2.26-4.27l1.86-.58c.08-.02.17,0,.26.04,1.26.73,2.43,1.57,3.52,2.53.04.04.05.11.02.15,0,0-.02.02-.03.02-1.73.97-3.35,2.1-4.86,3.38h0Z" style="fill:#fff;"/><path d="M12.29,2.48c-.92,1.34-1.67,2.76-2.26,4.27-.02.06,0,.13.08.16,0,0,0,0,0,0l2.94,1.1-1.86,1.77-1.76-.47c-.07-.02-.14.03-.16.1-.26.99-.41,2.01-.45,3.07l-.65.94c-.04.05-.11.06-.16.03,0,0,0,0-.01,0-.51-.44-.95-.94-1.33-1.49l.51-2.95c.01-.07-.03-.14-.1-.15-.82-.14-1.65-.17-2.49-.09-.23-.28-.24-.55-.01-.83.55-.68,1.17-1.3,1.85-1.85l1.47.18c.07,0,.14-.03.18-.1l1.15-2.24c.95-.64,1.97-1.13,3.07-1.45h0Z" style="fill:#0b281c;"/><path d="M9.23,3.93l-1.15,2.24c-.04.07-.11.11-.18.1l-1.47-.18c.78-.9,1.71-1.62,2.79-2.15h0ZM32.72,8.14c.1,2.82-.45,5.54-1.64,8.16-1.12-3.84-3.02-7.22-5.7-10.14-.06-.07-.05-.17.03-.23.01-.01.03-.02.04-.03,1.13-.51,2.31-.86,3.53-1.05.09-.01.17,0,.23.03,1.36.89,2.53,1.98,3.51,3.27h0Z" style="fill:#fff;"/><path d="M32.72,8.14c.77.72,1.39,1.56,1.87,2.52-.29,3.17-1.17,6.15-2.64,8.95-.03.07-.02.15.04.2,1.63,1.45,3.11,3.08,4.42,4.89-.13.48-.9,3.26-1.76,2.63-.64-1.47-1.5-2.78-2.6-3.93,0-2.42-.33-4.78-.97-7.09,1.2-2.61,1.74-5.33,1.64-8.16h0Z" style="fill:#0b281c;"/><path d="M25.07,14.43l-6.42-3.83c.81-.84,1.71-1.58,2.69-2.21.06-.04.14-.03.18.03,1.43,1.85,2.61,3.86,3.54,6.01ZM6.68,11.95c-.86-.95-1.55-2.01-2.08-3.18.83-.08,1.66-.05,2.49.09.07.01.11.08.1.15l-.51,2.95ZM11.2,9.79l-2.37,2.7c.04-1.06.19-2.08.45-3.07.02-.07.09-.12.16-.1l1.76.47Z" style="fill:#fff;"/><path d="M60.64,28.07c-11.26-1.44-10.2-18.06,1.47-18.07,2.81,0,5.18,1.15,7.11,3.46.06.08.05.19-.03.26,0,0,0,0,0,0l-3.43,2.68c-.06.05-.14.03-.19-.03,0,0,0,0,0,0-1.54-2.05-4.3-2.7-6.3-.99-2.26,1.94-2.05,6.29.59,7.81,2.02,1.17,4.46.34,5.79-1.46.06-.09.19-.11.29-.04l3.38,2.42c.06.05.09.12.05.17,0,0,0,0,0,0-2.17,2.98-5.08,4.24-8.71,3.77ZM177.98,27.96c-5.47-.85-8.17-6.52-6.8-11.52,1.87-6.81,10.14-8.29,15.09-3.79.1.1.11.26.01.36,0,0,0,0,0,0l-1.1,1.18s-.13.04-.19-.01c-5.88-5.35-13.72-.51-11.81,7.06.98,3.87,5.21,5.96,8.91,4.62,1.03-.37,2.03-1.04,3-1.99.07-.07.17-.09.21-.05l1.15,1.08s.03.15-.05.23c-2.29,2.4-5.1,3.34-8.41,2.82h0ZM141.1,20.46c-2.92-.96-7.92-1.15-7.82-5.58.06-2.8,2.42-4.56,5.13-4.74,2.5-.17,4.71.5,6.63,2.01.07.05.09.13.06.18l-1.03,1.38s-.13.03-.21-.03c0,0,0,0,0,0-1.82-1.51-4.95-2.48-7.14-1.3-2.11,1.13-1.86,3.8.3,4.81,2.97,1.38,9.28,1.35,8.66,6.29-.36,2.88-2.54,4.35-5.31,4.52-2.95.18-5.52-.72-7.72-2.7-.04-.04-.04-.1,0-.15l1.09-1.27c.05-.06.14-.06.19-.02,0,0,0,0,0,0,2.05,2,4.44,2.76,7.15,2.29,1.01-.17,2.09-1.04,2.44-2.04.68-1.96-.75-3.09-2.43-3.65ZM87.73,18.25c0-.33-.08-.36-.25-.1l-4.18,6.45s-.08.05-.12.02c-.01,0-.02-.02-.03-.03l-4.13-6.38c-.19-.29-.29-.26-.29.1v9.36c0,.07-.05.13-.12.13h-4.45c-.11,0-.19-.08-.19-.18,0,0,0,0,0,0,.18-5.68.05-11.46.05-17.09,0-.09.06-.16.14-.16h4.77c.11,0,.23.08.31.2l3.98,6.46s.06.05.08.03c0,0,.01,0,.02-.01l4.02-6.55c.05-.08.12-.13.18-.13h4.9c.07,0,.13.06.13.13v17.18c0,.07-.06.13-.13.13h-4.58c-.07,0-.12-.06-.12-.13h0l.02-9.42h0ZM107.49,16.9l3.95-6.43c.04-.07.12-.11.21-.11h4.84c.08,0,.15.06.15.13l.05,17.18c0,.07-.06.13-.13.13h-4.65c-.06,0-.11-.08-.11-.19,0,0,0,0,0,0l.05-9.63c0-.15-.04-.16-.12-.04l-4.26,6.56c-.05.08-.16.1-.23.05-.02-.01-.03-.03-.05-.05l-4.23-6.52c-.1-.15-.15-.15-.15,0l.02,9.69c0,.07-.06.13-.14.13h-4.45c-.07,0-.13-.06-.13-.13V10.49c0-.07.06-.13.13-.13h4.9c.06,0,.13.05.18.13l3.96,6.42c.04.06.13.08.19.04.02-.01.03-.03.04-.04h0Z" style="fill:#0b281c;"/><rect x="122.33" y="10.36" width="4.84" height="17.44" rx=".07" ry=".07" style="fill:#0b281c;"/><path d="M158.41,25.2l6.07-14.69c.04-.09.1-.15.17-.15h1.91s.08.05.07.1c0,.01,0,.02,0,.04l-7.35,17.26c-.04.1-.13.17-.21.17h-1.53c-.06,0-.12-.06-.16-.15l-7.34-17.22c-.03-.08-.02-.16.02-.19,0,0,.02,0,.03,0h1.97c.05,0,.11.06.15.16l6.05,14.66c.06.14.12.15.17.03h0ZM202.22,10.44s.07-.08.11-.08h1.59s.08.04.07.09c0,.01,0,.03-.01.04l-8.59,17.17c-.04.08-.12.14-.19.14h-1.53s-.08-.06-.06-.13c0-.02.01-.04.02-.06l8.59-17.17h0ZM18.65,10.6l6.42,3.83c.55,1.1.97,2.24,1.27,3.44-2.88-2.21-5.97-4.14-9.26-5.79.42-.63.94-1.12,1.57-1.47h0Z" style="fill:#0b281c;"/><path d="M34.59,10.66c2.56,4.4,3.17,9.07,1.82,14.03-1.32-1.81-2.79-3.44-4.42-4.89-.06-.05-.07-.13-.04-.2,1.47-2.8,2.35-5.78,2.64-8.95h0ZM17.08,12.08c3.29,1.65,6.38,3.58,9.26,5.79.51,1.7.81,3.44.9,5.21l-1.86,2.17c-4.69-1.87-8.99-4.4-12.89-7.6-.06-.05-.07-.13-.02-.19,1.41-1.92,2.95-3.72,4.6-5.38h0ZM5.26,18.69c-1.01,2.42-1.76,5.22-1.69,7.86,0,.31-.06.33-.21.05C.91,22.14.46,17.46,2.02,12.57c.07-.22.14-.22.21.02.65,2.15,1.66,4.11,3.02,5.9.04.05.04.13.01.2Z" style="fill:#fff;"/><path d="M12.38,25.57c1.34,2.31,2.93,4.4,4.79,6.27.05.05.13.06.2.03,1.04-.61,2.05-1.33,3.05-2.16l2.63.83c-1.27,1.07-2.63,2.02-4.06,2.87-.03.02-.04.06-.02.09,0,0,0,.01.01.02,1.27,1.09,2.65,2.03,4.13,2.79-1.28.3-2.57.37-3.87.19l-2.4-1.82c-.06-.05-.14-.06-.21-.04l-2.38.91c-1.04-.27-2.01-.69-2.92-1.26,1.25-.27,2.49-.67,3.73-1.19.03-.01.04-.04.03-.07,0,0,0-.01-.01-.02-2.67-2.65-4.8-5.68-6.37-9.1l.4-.87c.02-.05.09-.07.14-.04,0,0,.02.01.03.02l3.1,2.56Z" style="fill:#0b281c;"/><path d="M27.25,23.08c.15.95.19,1.9.12,2.86,0,.06-.05.1-.1.1-.01,0-.02,0-.03,0l-1.85-.77,1.86-2.17h0Z" style="fill:#082018;"/><path d="M32.05,23.39c1.1,1.15,1.97,2.46,2.6,3.93-.95.14-1.88.11-2.8-.1-.07-.02-.11-.08-.11-.16l.31-3.67h0ZM8.72,23.91c1.57,3.42,3.69,6.46,6.37,9.1.02.02.02.06,0,.08,0,0-.01,0-.02.01-1.24.53-2.48.93-3.73,1.19-1.64-.83-3.11-1.89-4.43-3.17-.06-.06-.09-.14-.08-.22.18-2.45.81-4.79,1.89-7h0ZM20.41,29.71c-.99.82-2.01,1.54-3.05,2.16-.07.04-.15.03-.2-.03-1.85-1.87-3.45-3.96-4.79-6.27,2.53,1.68,5.2,3.06,8.03,4.14ZM23.05,30.54l3.63.74c.08.02.13.08.12.14-.32,1.45-.79,2.84-1.41,4.19-.06.13-.18.23-.32.26l-1.94.45c-1.49-.77-2.87-1.7-4.13-2.79-.03-.02-.03-.07,0-.09,0,0,.01-.01.02-.01,1.43-.85,2.79-1.8,4.06-2.87h0ZM30.51,31.63c.04-.13.17-.22.3-.21.55.02,1.09-.05,1.61-.22.08-.03.15-.02.19.02l.03.03s0,.05-.02.08c-.89.88-1.85,1.69-2.87,2.41-.34.24-.4.19-.17-.17.39-.6.7-1.25.92-1.94Z" style="fill:#fff;"/><path d="M219.32,27.74c-1.17,0-2.35-.15-3.54-.44s-2.22-.71-3.08-1.25l1.74-3.64c.7.46,1.46.81,2.28,1.05.82.24,1.64.37,2.46.37s1.47-.16,1.98-.48c.5-.32.76-.76.76-1.33,0-.34-.1-.65-.29-.92-.2-.27-.53-.47-1-.61-.47-.14-1.15-.21-2.03-.21h-4.64l.86-10h10.9v3.74h-9.19l2.47-2.13-.56,6.74-2.47-2.13h3.79c1.69,0,3.05.24,4.08.72,1.03.48,1.78,1.12,2.25,1.93s.71,1.71.71,2.72-.27,1.96-.79,2.85c-.53.89-1.34,1.61-2.43,2.16-1.09.55-2.5.83-4.23.83Z" style="fill:#0b281c;"/></g></svg>