<?xml version="1.0" encoding="UTF-8"?><svg id="uuid-00c8c345-1cf0-4018-93c2-9010356aa85e" xmlns="http://www.w3.org/2000/svg" viewBox="0 0 91.24 91.24"><g id="uuid-19426a9d-537c-4bcc-ab60-0cc9cec302e6"><path d="M52.19,87.08c-2.23.35-4.24,4.17-6.57,4.17s-4.34-3.82-6.57-4.17c-2.29-.36-5.37,2.65-7.53,1.94-2.2-.71-2.92-4.96-4.95-6-2.05-1.05-5.92.85-7.76-.49-1.86-1.35-1.24-5.62-2.86-7.24s-5.88-1-7.24-2.86c-1.35-1.85.56-5.71-.49-7.76-1.04-2.03-5.29-2.76-6-4.95-.7-2.16,2.3-5.24,1.94-7.53-.35-2.23-4.17-4.24-4.17-6.57s3.82-4.34,4.17-6.57c.36-2.29-2.65-5.37-1.94-7.53.71-2.2,4.96-2.92,6-4.95,1.05-2.05-.85-5.92.49-7.76,1.35-1.86,5.62-1.24,7.24-2.86,1.62-1.62,1-5.88,2.86-7.24,1.85-1.35,5.71.56,7.76-.49,2.03-1.04,2.76-5.29,4.95-6,2.16-.7,5.24,2.3,7.53,1.94,2.23-.35,4.24-4.17,6.57-4.17s4.34,3.82,6.57,4.17c2.29.36,5.37-2.65,7.53-1.94,2.2.71,2.92,4.96,4.95,6,2.05,1.05,5.92-.85,7.76.49,1.86,1.35,1.24,5.62,2.86,7.24,1.62,1.62,5.88,1,7.24,2.86,1.35,1.85-.56,5.71.49,7.76,1.04,2.03,5.29,2.76,6,4.95.7,2.16-2.3,5.24-1.94,7.53.35,2.23,4.17,4.24,4.17,6.57s-3.82,4.34-4.17,6.57c-.36,2.29,2.65,5.37,1.94,7.53-.71,2.2-4.96,2.92-6,4.95-1.05,2.05.85,5.92-.49,7.76-1.35,1.86-5.62,1.24-7.24,2.86-1.62,1.62-1,5.88-2.86,7.24-1.85,1.35-5.71-.56-7.76.49-2.03,1.04-2.76,5.29-4.95,6" style="fill:#0a7d49;"/><circle cx="45.62" cy="45.62" r="39.55" transform="translate(-18.9 45.62) rotate(-45)" style="fill:#0a7d49; stroke:#fff; stroke-miterlimit:10; stroke-width:2px;"/><path d="M80.73,45.62c0,19.39-15.72,35.11-35.11,35.11-19.39,0-35.11-15.72-35.11-35.11S26.23,10.51,45.62,10.51s35.11,15.72,35.11,35.11Z" style="fill:none;"/><path d="M14.34,25.67c.5-.78,1.31-1.09,2.14-.82l-.56.88c-.37-.04-.66.12-.86.42-.31.49-.16,1.06.42,1.43.58.37,1.16.26,1.47-.23.19-.3.21-.64.02-.95l.56-.88c.59.64.65,1.5.15,2.28-.62.97-1.74,1.21-2.72.59-.98-.62-1.24-1.75-.62-2.71Z" style="fill:#fff;"/><path d="M18.67,21.29l-.92,1.09.6.51.82-.97.56.47-.82.97.65.55.92-1.09.58.49-1.54,1.82-2.97-2.51,1.54-1.82.58.49Z" style="fill:#fff;"/><path d="M20.62,18.27c.7-.65,1.42-.57,1.88-.07.33.36.45.88.13,1.41l1.7.52-.79.72-1.59-.53-.17.15,1,1.08-.7.64-2.64-2.86,1.17-1.08ZM21.11,18.89l-.43.4.65.71.43-.4c.26-.24.26-.49.05-.71-.19-.21-.44-.24-.71,0Z" style="fill:#fff;"/><path d="M23.02,16.23l2.45-1.73.44.62-.84.59,1.8,2.55-.77.54-1.8-2.55-.84.59-.44-.62Z" style="fill:#fff;"/><path d="M27.01,13.57l.82-.46,1.91,3.38-.82.46-1.91-3.38Z" style="fill:#fff;"/><path d="M29.58,12.19l2.32-1.02.31.69-1.45.64.33.75,1.08-.48.3.67-1.08.48.64,1.44-.87.38-1.58-3.56Z" style="fill:#fff;"/><path d="M33.59,10.57l.9-.29,1.21,3.68-.9.29-1.21-3.68Z" style="fill:#fff;"/><path d="M38.87,9.93l-1.4.31.17.77,1.24-.28.16.71-1.24.28.19.83,1.4-.31.17.74-2.32.52-.85-3.79,2.32-.52.17.74Z" style="fill:#fff;"/><path d="M44.29,10.49c.1,1.15-.62,2-1.86,2.11l-1.45.13-.34-3.87,1.45-.13c1.23-.11,2.1.6,2.2,1.75ZM42.3,11.8c.71-.06,1.09-.51,1.03-1.22-.06-.71-.52-1.09-1.23-1.03l-.45.04.2,2.25.45-.04Z" style="fill:#fff;"/><path d="M50.26,8.81c.92.11,1.54.72,1.66,1.58l-1.03-.13c-.12-.35-.39-.55-.75-.6-.58-.07-1.03.31-1.11.99s.26,1.16.83,1.23c.36.04.67-.08.87-.39l1.03.13c-.32.81-1.08,1.23-2,1.12-1.14-.14-1.84-1.05-1.69-2.2.14-1.15,1.05-1.87,2.18-1.72Z" style="fill:#fff;"/><path d="M54.72,13.76c-1.06-.3-1.7-1.34-1.38-2.46s1.41-1.67,2.46-1.37c1.07.3,1.69,1.33,1.37,2.45-.32,1.12-1.4,1.68-2.46,1.37ZM54.96,12.93c.6.17,1.11-.15,1.29-.81.19-.67-.08-1.2-.68-1.37-.61-.17-1.11.14-1.3.81-.19.65.08,1.19.68,1.37Z" style="fill:#fff;"/><path d="M59.55,11.21l1.01.48-.17,2.89,2.13-1.96,1,.48-1.67,3.5-.85-.41,1-2.1-1.79,1.73-.69-.33.22-2.48-1,2.11-.85-.41,1.67-3.5Z" style="fill:#fff;"/><path d="M65.16,17.11l-.49-.33-.78,1.15-.78-.53,2.18-3.21,1.27.86c.79.54.88,1.25.48,1.84-.36.53-1.06.78-1.88.22ZM65.52,16.44c.31.21.55.15.72-.1s.14-.49-.17-.7l-.43-.29-.55.81.43.29Z" style="fill:#fff;"/><path d="M68.86,20.99l-1.08-.97-.63.35-.74-.66,3.65-1.94.81.73-1.56,3.82-.74-.67.29-.66ZM69.77,18.91l-1.31.74.71.64.6-1.38Z" style="fill:#fff;"/><path d="M75.38,23.48l-3,2.46-.6-.73.85-2.74-1.85,1.52-.6-.73,3-2.46.6.73-.86,2.75,1.86-1.53.6.73Z" style="fill:#fff;"/><path d="M76.4,24.9l.56.92-1,1.49,1.78-.21.55.91-2.92.2-1.1.67-.49-.81,1.1-.67,1.53-2.5Z" style="fill:#fff;"/><circle cx="45.62" cy="45.62" r="30.71" style="fill:#fff;"/><circle cx="45.62" cy="76.17" r="8.12" transform="translate(-38.94 103.22) rotate(-76.82)" style="fill:#0a7d49;"/><path d="M4.48,45.62c0,3.71.49,7.3,1.41,10.72h79.46c.92-3.42,1.41-7.01,1.41-10.72s-.49-7.3-1.41-10.72H5.89c-.92,3.42-1.41,7.01-1.41,10.72Z" style="fill:#0a7d49;"/><path d="M12.96,40.51v10.23h-3.14v-10.23h3.14Z" style="fill:#fff;"/><path d="M13.69,47.78l2.92-.52c.24.82.87,1.24,1.89,1.24.79,0,1.18-.21,1.18-.63,0-.22-.09-.39-.27-.51-.18-.12-.51-.23-.98-.33-1.79-.34-2.95-.79-3.46-1.35-.51-.56-.76-1.21-.76-1.96,0-.96.37-1.77,1.1-2.41.73-.64,1.79-.96,3.16-.96,2.08,0,3.46.84,4.13,2.51l-2.6.79c-.27-.68-.82-1.03-1.64-1.03-.68,0-1.03.21-1.03.64,0,.19.08.34.23.44.16.1.46.21.9.3,1.22.26,2.09.49,2.61.69s.94.54,1.29,1.02.52,1.05.52,1.71c0,1.04-.42,1.87-1.26,2.52-.84.64-1.94.96-3.31.96-2.49,0-4.03-1.04-4.62-3.12Z" style="fill:#fff;"/><path d="M28.5,50.89c-1.44,0-2.61-.48-3.52-1.43-.91-.95-1.36-2.23-1.36-3.83s.43-2.79,1.3-3.79c.87-1,2.07-1.5,3.61-1.5,1.42,0,2.58.47,3.48,1.41.9.94,1.35,2.19,1.35,3.76s-.45,2.93-1.36,3.91-2.07,1.47-3.5,1.47ZM28.48,48.57c.53,0,.91-.23,1.14-.69.23-.46.35-1.31.35-2.54,0-1.78-.48-2.67-1.43-2.67-1.03,0-1.54,1.01-1.54,3.04,0,1.9.49,2.86,1.48,2.86Z" style="fill:#fff;"/><path d="M45.99,48.23l-.11,2.51h-7.79v-2.35l1.74-1.22c.25-.17.73-.55,1.43-1.13s1.15-1.02,1.37-1.33c.21-.31.32-.63.32-.97s-.09-.59-.28-.78-.43-.3-.73-.3c-.75,0-1.17.59-1.26,1.77l-2.59-.5c.19-1.2.66-2.1,1.41-2.69.75-.59,1.64-.88,2.66-.88,1.11,0,2.02.3,2.72.89.7.59,1.05,1.39,1.05,2.38,0,.66-.19,1.29-.57,1.88-.38.59-1.5,1.5-3.35,2.73h3.99Z" style="fill:#fff;"/><path d="M51.1,50.89c-1.23,0-2.21-.49-2.93-1.46s-1.08-2.25-1.08-3.83.37-2.91,1.11-3.84,1.72-1.41,2.96-1.41,2.29.5,2.98,1.5,1.03,2.28,1.03,3.84-.37,2.85-1.11,3.79-1.73,1.41-2.95,1.41ZM51.13,48.72c.43,0,.72-.27.86-.82.15-.55.22-1.3.22-2.24,0-1.3-.1-2.16-.29-2.56-.19-.4-.45-.6-.78-.6-.4,0-.68.26-.83.79s-.23,1.25-.23,2.18c0,1.25.08,2.11.23,2.57.15.46.43.69.82.69Z" style="fill:#fff;"/><path d="M60.1,50.89c-1.23,0-2.21-.49-2.93-1.46s-1.08-2.25-1.08-3.83.37-2.91,1.11-3.84,1.72-1.41,2.96-1.41,2.29.5,2.98,1.5,1.03,2.28,1.03,3.84-.37,2.85-1.11,3.79-1.73,1.41-2.95,1.41ZM60.13,48.72c.43,0,.72-.27.86-.82.15-.55.22-1.3.22-2.24,0-1.3-.1-2.16-.29-2.56-.19-.4-.45-.6-.78-.6-.4,0-.68.26-.83.79s-.23,1.25-.23,2.18c0,1.25.08,2.11.23,2.57.15.46.43.69.82.69Z" style="fill:#fff;"/><path d="M69.1,50.89c-1.23,0-2.21-.49-2.93-1.46s-1.08-2.25-1.08-3.83.37-2.91,1.11-3.84,1.72-1.41,2.96-1.41,2.29.5,2.98,1.5,1.03,2.28,1.03,3.84-.37,2.85-1.11,3.79-1.73,1.41-2.95,1.41ZM69.13,48.72c.43,0,.72-.27.86-.82.15-.55.22-1.3.22-2.24,0-1.3-.1-2.16-.29-2.56-.19-.4-.45-.6-.78-.6-.4,0-.68.26-.83.79s-.23,1.25-.23,2.18c0,1.25.08,2.11.23,2.57.15.46.43.69.82.69Z" style="fill:#fff;"/><path d="M79.74,48.46h2.41v2.28h-7.87v-2.28h2.53v-4.86c-.96.42-1.71.67-2.25.75v-2.3c1.45-.31,2.44-.88,2.96-1.69h2.22v8.11Z" style="fill:#fff;"/><polygon points="62.7 25.98 63.5 27.59 65.28 27.85 63.99 29.11 64.29 30.88 62.7 30.04 61.11 30.88 61.42 29.11 60.13 27.85 61.91 27.59 62.7 25.98" style="fill:#0a7d49;"/><polygon points="55.07 22.84 55.87 24.46 57.65 24.71 56.36 25.97 56.66 27.74 55.07 26.91 53.48 27.74 53.78 25.97 52.5 24.71 54.28 24.46 55.07 22.84" style="fill:#0a7d49;"/><polygon points="28.54 25.98 27.75 27.59 25.97 27.85 27.25 29.11 26.95 30.88 28.54 30.04 30.13 30.88 29.83 29.11 31.12 27.85 29.34 27.59 28.54 25.98" style="fill:#0a7d49;"/><polygon points="36.17 22.84 35.38 24.46 33.6 24.71 34.88 25.97 34.58 27.74 36.17 26.91 37.76 27.74 37.46 25.97 38.75 24.71 36.97 24.46 36.17 22.84" style="fill:#0a7d49;"/><polygon points="45.62 19.73 46.92 22.37 49.84 22.79 47.73 24.84 48.23 27.74 45.62 26.37 43.02 27.74 43.52 24.84 41.41 22.79 44.32 22.37 45.62 19.73" style="fill:#0a7d49;"/><path d="M78.61,64.4s-.02-.01-.05-.02c-.03-.01-.08-.04-.14-.05-.12-.04-.29-.08-.49-.1-.2-.02-.43-.02-.66.01-.24.03-.49.09-.73.17-.24.08-.48.19-.71.31-.22.12-.42.26-.6.4-.09.07-.16.14-.23.2-.07.07-.13.13-.18.18-.05.05-.09.1-.11.13-.03.03-.04.05-.04.05,0,0,.02.01.05.03.03.02.08.04.14.07.06.03.13.05.21.08.08.03.17.05.27.07.19.04.42.06.66.04.24-.01.49-.06.74-.14.25-.08.5-.19.72-.32.23-.13.43-.29.61-.45.17-.16.31-.32.41-.45.05-.06.08-.12.11-.15.02-.04.04-.06.04-.06Z" style="fill:#f5f8f8;"/><path d="M77.09,60.57s-.02,0-.05.03c-.03.02-.09.05-.14.08-.12.07-.27.19-.43.33-.16.14-.33.32-.49.52-.16.2-.3.42-.43.65-.13.23-.24.47-.32.71-.08.24-.14.47-.17.69-.02.11-.03.21-.03.3,0,.09,0,.17,0,.24,0,.07,0,.13,0,.16,0,.04,0,.06,0,.06,0,0,.02,0,.06-.02.03-.02.09-.03.15-.07.06-.03.14-.07.22-.12.08-.05.16-.1.25-.17.18-.13.36-.3.53-.5.17-.2.33-.42.46-.66.13-.24.24-.5.31-.75.07-.25.12-.5.14-.72.02-.22,0-.41,0-.55,0-.07-.02-.13-.03-.16,0-.04-.01-.06-.01-.06Z" style="fill:#f5f8f8;"/><path d="M76.85,67.21s-.02-.01-.05-.03c-.03-.02-.08-.04-.14-.07-.12-.05-.28-.11-.48-.14-.2-.04-.42-.06-.66-.05-.24,0-.49.04-.74.1-.25.06-.5.14-.73.24-.23.1-.45.22-.63.34-.09.06-.18.12-.25.18-.07.06-.14.11-.19.16-.05.05-.1.09-.12.12-.03.03-.04.05-.04.05,0,0,.02.01.05.03.03.02.07.05.13.08.06.03.12.07.2.1.08.03.16.07.26.09.19.06.41.1.65.1.24,0,.49-.02.75-.07.25-.06.51-.14.75-.25.24-.11.46-.25.64-.39.19-.14.34-.29.45-.41.05-.06.09-.11.12-.14.03-.03.04-.06.04-.06Z" style="fill:#f5f8f8;"/><path d="M74.85,69.82s-.02-.01-.05-.03c-.03-.02-.07-.05-.13-.08-.11-.06-.27-.13-.46-.19-.19-.06-.41-.1-.65-.11-.24-.02-.49,0-.75.03-.25.04-.51.09-.75.17-.24.08-.46.18-.66.28-.1.05-.19.11-.27.16-.08.05-.15.1-.21.14-.06.04-.1.08-.13.11-.03.03-.05.04-.05.04,0,0,.01.01.04.04.03.02.07.06.12.09.05.04.12.08.19.12.07.04.16.08.25.12.18.07.4.13.64.16.24.03.49.03.75,0,.26-.03.52-.09.77-.18.25-.09.48-.2.68-.33.2-.12.36-.26.48-.36.06-.05.1-.1.13-.13.03-.03.05-.05.05-.05Z" style="fill:#f5f8f8;"/><path d="M72.62,72.24s-.01-.01-.04-.04c-.03-.02-.07-.06-.12-.09-.11-.07-.26-.16-.44-.23-.19-.07-.4-.13-.64-.17-.24-.04-.49-.05-.75-.04-.26.01-.51.05-.76.1-.24.06-.48.13-.68.22-.1.04-.19.09-.28.13-.08.04-.16.09-.22.13-.06.04-.11.07-.14.1-.03.02-.05.04-.05.04,0,0,.01.02.04.04.03.02.06.06.11.1.05.04.11.09.18.13.07.05.15.09.24.14.18.09.39.17.62.22.23.05.49.07.75.07.26,0,.53-.04.78-.11.25-.07.49-.16.7-.27.21-.1.39-.22.51-.31.06-.05.11-.09.15-.12.03-.03.05-.05.05-.05Z" style="fill:#f5f8f8;"/><path d="M70.19,74.44s-.01-.02-.04-.04c-.03-.02-.06-.06-.11-.1-.1-.08-.24-.18-.42-.27-.18-.09-.39-.17-.62-.23-.23-.06-.48-.09-.74-.11-.26-.01-.52,0-.76.03-.25.03-.49.09-.7.16-.1.03-.2.07-.29.11-.09.04-.16.07-.23.1-.06.03-.12.06-.15.08-.04.02-.06.03-.06.03,0,0,.01.02.03.04.02.03.06.07.1.11.04.05.1.1.17.15.07.05.14.11.22.16.17.11.37.2.6.28.23.07.48.12.74.14.26.02.53,0,.79-.04.26-.04.51-.11.72-.2.22-.09.4-.18.54-.27.07-.04.12-.08.16-.1.04-.03.06-.04.06-.04Z" style="fill:#f5f8f8;"/><path d="M67.56,76.41s-.01-.02-.04-.04c-.02-.03-.06-.07-.1-.11-.09-.09-.23-.2-.39-.31-.17-.11-.37-.21-.6-.28-.23-.08-.47-.14-.73-.17-.25-.03-.51-.05-.77-.04-.25.01-.49.05-.71.1-.11.02-.21.05-.3.08-.09.03-.17.06-.24.08-.07.03-.12.05-.16.07-.04.02-.06.03-.06.03,0,0,.01.02.03.05.02.03.05.07.09.12.04.05.09.11.15.16.06.06.13.12.21.18.16.12.35.24.57.33.22.09.47.16.72.2.26.04.53.05.79.03.26-.02.52-.07.74-.13.22-.07.42-.15.56-.22.07-.03.13-.07.16-.09.04-.02.06-.04.06-.04Z" style="fill:#f5f8f8;"/><path d="M64.76,78.13s-.01-.02-.03-.05c-.02-.03-.05-.07-.09-.12-.08-.1-.21-.22-.37-.34-.16-.12-.35-.24-.57-.34-.22-.1-.46-.18-.71-.24-.25-.06-.51-.09-.76-.1-.25-.01-.5,0-.72.03-.11.02-.21.03-.31.05-.09.02-.18.04-.25.06-.07.02-.13.04-.17.05-.04.01-.06.02-.06.02,0,0,0,.02.03.05.02.03.04.08.08.13.04.05.08.11.14.18.05.06.12.13.19.2.15.14.33.27.54.38.21.11.45.2.71.27.25.06.52.1.78.1.26,0,.52-.02.75-.07.23-.04.43-.11.58-.17.07-.03.13-.06.17-.07.04-.02.06-.03.06-.03Z" style="fill:#f5f8f8;"/><path d="M73.27,61.38s.02.01.05.03c.03.02.07.05.12.09.1.08.22.2.35.35.12.15.24.34.34.55.1.21.17.44.22.68.05.24.07.49.06.74,0,.24-.05.48-.11.69-.03.1-.06.2-.09.29-.03.09-.07.16-.1.23-.03.06-.06.12-.08.15-.02.03-.03.05-.03.05,0,0-.02-.01-.04-.04-.03-.02-.07-.06-.11-.1-.05-.04-.1-.1-.15-.16-.05-.06-.11-.14-.16-.22-.11-.16-.21-.36-.3-.57-.09-.21-.15-.45-.19-.69-.04-.24-.06-.48-.06-.72,0-.23.03-.46.07-.65.04-.2.09-.37.14-.49.02-.06.05-.11.06-.14.02-.03.03-.05.03-.05Z" style="fill:#f5f8f8;"/><path d="M71.81,63.71s.02.01.04.03c.03.02.07.06.11.1.09.09.21.22.31.38.11.16.21.36.29.57.08.22.13.45.16.7.03.24.02.5,0,.74-.03.24-.09.47-.17.67-.04.1-.08.19-.12.28-.04.08-.08.16-.12.22-.04.06-.07.11-.09.14-.02.03-.04.05-.04.05,0,0-.02-.01-.04-.04-.02-.03-.06-.06-.1-.11-.04-.05-.09-.11-.13-.18-.05-.07-.1-.15-.14-.23-.09-.17-.18-.38-.24-.6-.07-.22-.11-.46-.13-.7-.02-.24-.02-.48,0-.72.02-.23.07-.45.13-.64.06-.19.13-.36.18-.47.03-.06.06-.11.07-.14.02-.03.03-.05.03-.05Z" style="fill:#f5f8f8;"/><path d="M70.15,65.88s.02.01.04.04c.02.03.06.06.1.11.08.1.18.24.28.41.09.17.18.37.24.6.06.22.09.46.1.71,0,.25-.02.49-.07.73-.05.24-.13.46-.23.65-.05.1-.09.18-.14.26-.05.08-.09.15-.14.2-.04.06-.08.1-.11.13-.03.03-.04.05-.04.05,0,0-.01-.01-.04-.04-.02-.03-.06-.07-.09-.12-.04-.05-.08-.12-.12-.19-.04-.07-.08-.16-.12-.25-.08-.18-.14-.39-.19-.62-.05-.23-.07-.47-.07-.71,0-.24.02-.48.07-.71.04-.23.11-.44.18-.63.07-.19.16-.34.22-.45.03-.06.07-.1.09-.13.02-.03.03-.05.03-.05Z" style="fill:#f5f8f8;"/><path d="M68.3,67.88s.01.01.04.04c.02.03.06.07.09.12.07.1.16.25.24.43.08.18.14.39.18.62.04.23.05.47.03.71-.02.24-.07.49-.14.72-.07.23-.17.44-.28.63-.06.09-.11.17-.17.25-.06.07-.11.14-.16.19-.05.05-.09.09-.12.12-.03.03-.05.04-.05.04,0,0-.01-.02-.03-.05-.02-.03-.05-.07-.08-.13-.03-.06-.07-.12-.1-.2-.03-.08-.07-.16-.1-.26-.06-.19-.11-.4-.13-.63-.02-.23-.02-.47,0-.71.02-.24.07-.48.13-.7.06-.22.15-.43.24-.61.09-.18.19-.33.26-.43.04-.05.08-.09.1-.12.02-.03.04-.04.04-.04Z" style="fill:#f5f8f8;"/><path d="M66.29,69.7s.01.02.03.05c.02.03.05.07.08.13.06.11.14.27.2.45.06.19.11.4.12.63.02.23,0,.47-.03.71-.04.24-.11.48-.21.7-.09.22-.21.43-.34.6-.06.09-.13.16-.19.23-.06.07-.12.13-.17.18-.05.05-.1.08-.13.11-.03.03-.05.04-.05.04,0,0-.01-.02-.03-.05-.02-.03-.04-.08-.07-.14-.03-.06-.05-.13-.08-.21-.03-.08-.05-.17-.07-.26-.04-.19-.07-.41-.07-.64,0-.23.02-.47.06-.71.05-.24.11-.47.2-.69.08-.22.19-.41.29-.58.11-.17.22-.31.3-.4.04-.05.08-.09.11-.11.03-.03.04-.04.04-.04Z" style="fill:#f5f8f8;"/><path d="M64.11,71.33s.01.02.03.05c.02.03.04.08.07.14.05.12.11.28.16.47.04.19.07.41.07.64,0,.23-.04.47-.1.71-.06.24-.15.47-.27.68-.12.21-.25.41-.4.57-.07.08-.14.15-.21.21-.07.06-.13.12-.19.16-.05.04-.11.08-.14.1-.03.02-.05.03-.05.03,0,0-.01-.02-.02-.05-.01-.03-.04-.08-.06-.14-.02-.06-.04-.13-.06-.21-.02-.08-.04-.17-.05-.27-.03-.2-.03-.42-.01-.65.02-.23.06-.47.13-.7.07-.23.15-.46.26-.67.1-.21.22-.4.35-.55.12-.16.24-.29.34-.37.05-.04.09-.08.12-.1.03-.02.05-.04.05-.04Z" style="fill:#f5f8f8;"/><path d="M61.79,72.76s.01.02.02.05c.01.03.04.08.06.14.04.12.09.29.11.48.03.19.03.41,0,.64-.02.23-.08.47-.17.7-.09.23-.2.46-.33.66-.14.2-.29.38-.45.53-.08.07-.16.14-.23.2-.07.06-.14.1-.2.14-.06.04-.11.07-.15.09-.04.02-.06.03-.06.03,0,0,0-.02-.02-.05,0-.03-.03-.08-.04-.15-.02-.06-.03-.14-.04-.22-.01-.08-.02-.17-.02-.27,0-.2,0-.42.05-.65.04-.23.11-.46.2-.69.09-.23.2-.44.32-.64.12-.2.26-.37.4-.52.14-.15.27-.26.37-.34.05-.04.1-.07.13-.09.03-.02.05-.03.05-.03Z" style="fill:#f5f8f8;"/><path d="M12.65,64.4s.02-.01.05-.02c.03-.01.08-.04.14-.05.12-.04.29-.08.49-.1.2-.02.43-.02.66.01.24.03.49.09.73.17.24.08.48.19.71.31.22.12.42.26.6.4.09.07.16.14.23.2.07.07.13.13.18.18.05.05.09.1.11.13.03.03.04.05.04.05,0,0-.02.01-.05.03-.03.02-.08.04-.14.07-.06.03-.13.05-.21.08-.08.03-.17.05-.27.07-.19.04-.42.06-.66.04-.24-.01-.49-.06-.74-.14-.25-.08-.5-.19-.72-.32-.23-.13-.43-.29-.61-.45-.17-.16-.31-.32-.41-.45-.05-.06-.08-.12-.11-.15-.02-.04-.04-.06-.04-.06Z" style="fill:#f5f8f8;"/><path d="M14.18,60.57s.02,0,.05.03c.03.02.09.05.14.08.12.07.27.19.43.33.16.14.33.32.49.52.16.2.3.42.43.65.13.23.24.47.32.71.08.24.14.47.17.69.02.11.03.21.03.3,0,.09,0,.17,0,.24,0,.07,0,.13,0,.16,0,.04,0,.06,0,.06,0,0-.02,0-.06-.02-.03-.02-.09-.03-.15-.07-.06-.03-.14-.07-.22-.12-.08-.05-.16-.1-.25-.17-.18-.13-.36-.3-.53-.5-.17-.2-.33-.42-.46-.66-.13-.24-.24-.5-.31-.75-.07-.25-.12-.5-.14-.72-.02-.22,0-.41,0-.55,0-.07.02-.13.03-.16,0-.04.01-.06.01-.06Z" style="fill:#f5f8f8;"/><path d="M14.42,67.21s.02-.01.05-.03c.03-.02.08-.04.14-.07.12-.05.28-.11.48-.14.2-.04.42-.06.66-.05.24,0,.49.04.74.1.25.06.5.14.73.24.23.1.45.22.63.34.09.06.18.12.25.18.07.06.14.11.19.16.05.05.1.09.12.12.03.03.04.05.04.05,0,0-.02.01-.05.03-.03.02-.07.05-.13.08-.06.03-.12.07-.2.1-.08.03-.16.07-.26.09-.19.06-.41.1-.65.1-.24,0-.49-.02-.75-.07-.25-.06-.51-.14-.75-.25-.24-.11-.46-.25-.64-.39-.19-.14-.34-.29-.45-.41-.05-.06-.09-.11-.12-.14-.03-.03-.04-.06-.04-.06Z" style="fill:#f5f8f8;"/><path d="M16.42,69.82s.02-.01.05-.03c.03-.02.07-.05.13-.08.11-.06.27-.13.46-.19.19-.06.41-.1.65-.11.24-.02.49,0,.75.03.25.04.51.09.75.17.24.08.46.18.66.28.1.05.19.11.27.16.08.05.15.1.21.14.06.04.1.08.13.11.03.03.05.04.05.04,0,0-.01.01-.04.04-.03.02-.07.06-.12.09-.05.04-.12.08-.19.12-.07.04-.16.08-.25.12-.18.07-.4.13-.64.16-.24.03-.49.03-.75,0-.26-.03-.52-.09-.77-.18-.25-.09-.48-.2-.68-.33-.2-.12-.36-.26-.48-.36-.06-.05-.1-.1-.13-.13-.03-.03-.05-.05-.05-.05Z" style="fill:#f5f8f8;"/><path d="M18.64,72.24s.01-.01.04-.04c.03-.02.07-.06.12-.09.11-.07.26-.16.44-.23.19-.07.4-.13.64-.17.24-.04.49-.05.75-.04.26.01.51.05.76.1.24.06.48.13.68.22.1.04.19.09.28.13.08.04.16.09.22.13.06.04.11.07.14.1.03.02.05.04.05.04,0,0-.01.02-.04.04-.03.02-.06.06-.11.1-.05.04-.11.09-.18.13-.07.05-.15.09-.24.14-.18.09-.39.17-.62.22-.23.05-.49.07-.75.07-.26,0-.53-.04-.78-.11-.25-.07-.49-.16-.7-.27-.21-.1-.39-.22-.51-.31-.06-.05-.11-.09-.15-.12-.03-.03-.05-.05-.05-.05Z" style="fill:#f5f8f8;"/><path d="M21.08,74.44s.01-.02.04-.04c.03-.02.06-.06.11-.1.1-.08.24-.18.42-.27.18-.09.39-.17.62-.23.23-.06.48-.09.74-.11.26-.01.52,0,.76.03.25.03.49.09.7.16.1.03.2.07.29.11.09.04.16.07.23.1.06.03.12.06.15.08.04.02.06.03.06.03,0,0-.01.02-.03.04-.02.03-.06.07-.1.11-.04.05-.1.1-.17.15-.07.05-.14.11-.22.16-.17.11-.37.2-.6.28-.23.07-.48.12-.74.14-.26.02-.53,0-.79-.04-.26-.04-.51-.11-.72-.2-.22-.09-.4-.18-.54-.27-.07-.04-.12-.08-.16-.1-.04-.03-.06-.04-.06-.04Z" style="fill:#f5f8f8;"/><path d="M23.7,76.41s.01-.02.04-.04c.02-.03.06-.07.1-.11.09-.09.23-.2.39-.31.17-.11.37-.21.6-.28.23-.08.47-.14.73-.17.25-.03.51-.05.77-.04.25.01.49.05.71.1.11.02.21.05.3.08.09.03.17.06.24.08.07.03.12.05.16.07.04.02.06.03.06.03,0,0-.01.02-.03.05-.02.03-.05.07-.09.12-.04.05-.09.11-.15.16-.06.06-.13.12-.21.18-.16.12-.35.24-.57.33-.22.09-.47.16-.72.2-.26.04-.53.05-.79.03-.26-.02-.52-.07-.74-.13-.22-.07-.42-.15-.56-.22-.07-.03-.13-.07-.16-.09-.04-.02-.06-.04-.06-.04Z" style="fill:#f5f8f8;"/><path d="M26.5,78.13s.01-.02.03-.05c.02-.03.05-.07.09-.12.08-.1.21-.22.37-.34.16-.12.35-.24.57-.34.22-.1.46-.18.71-.24.25-.06.51-.09.76-.1.25-.01.5,0,.72.03.11.02.21.03.31.05.09.02.18.04.25.06.07.02.13.04.17.05.04.01.06.02.06.02,0,0,0,.02-.03.05-.02.03-.04.08-.08.13-.04.05-.08.11-.14.18-.05.06-.12.13-.19.2-.15.14-.33.27-.54.38-.21.11-.45.2-.71.27-.25.06-.52.1-.78.1-.26,0-.52-.02-.75-.07-.23-.04-.43-.11-.58-.17-.07-.03-.13-.06-.17-.07-.04-.02-.06-.03-.06-.03Z" style="fill:#f5f8f8;"/><path d="M18,61.38s-.02.01-.05.03c-.03.02-.07.05-.12.09-.1.08-.22.2-.35.35-.12.15-.24.34-.34.55-.1.21-.17.44-.22.68-.05.24-.07.49-.06.74,0,.24.05.48.11.69.03.1.06.2.09.29.03.09.07.16.1.23.03.06.06.12.08.15.02.03.03.05.03.05,0,0,.02-.01.04-.04.03-.02.07-.06.11-.1.05-.04.1-.1.15-.16.05-.06.11-.14.16-.22.11-.16.21-.36.3-.57.09-.21.15-.45.19-.69.04-.24.06-.48.06-.72,0-.23-.03-.46-.07-.65-.04-.2-.09-.37-.14-.49-.02-.06-.05-.11-.06-.14-.02-.03-.03-.05-.03-.05Z" style="fill:#f5f8f8;"/><path d="M19.46,63.71s-.02.01-.04.03c-.03.02-.07.06-.11.1-.09.09-.21.22-.31.38-.11.16-.21.36-.29.57-.08.22-.13.45-.16.7-.03.24-.02.5,0,.74.03.24.09.47.17.67.04.1.08.19.12.28.04.08.08.16.12.22.04.06.07.11.09.14.02.03.04.05.04.05,0,0,.02-.01.04-.04.02-.03.06-.06.1-.11.04-.05.09-.11.13-.18.05-.07.1-.15.14-.23.09-.17.18-.38.24-.6.07-.22.11-.46.13-.7.02-.24.02-.48,0-.72-.02-.23-.07-.45-.13-.64-.06-.19-.13-.36-.18-.47-.03-.06-.06-.11-.07-.14-.02-.03-.03-.05-.03-.05Z" style="fill:#f5f8f8;"/><path d="M21.12,65.88s-.02.01-.04.04c-.02.03-.06.06-.1.11-.08.1-.18.24-.28.41-.09.17-.18.37-.24.6-.06.22-.09.46-.1.71,0,.25.02.49.07.73.05.24.13.46.23.65.05.1.1.18.14.26.05.08.09.15.14.2.04.06.08.1.11.13.03.03.04.05.04.05,0,0,.01-.01.04-.04.02-.03.06-.07.09-.12.04-.05.08-.12.12-.19.04-.07.08-.16.12-.25.08-.18.14-.39.19-.62.05-.23.07-.47.07-.71,0-.24-.02-.48-.07-.71-.04-.23-.11-.44-.18-.63-.07-.19-.16-.34-.22-.45-.03-.06-.07-.1-.09-.13-.02-.03-.03-.05-.03-.05Z" style="fill:#f5f8f8;"/><path d="M22.96,67.88s-.01.01-.04.04c-.02.03-.06.07-.09.12-.07.1-.16.25-.24.43-.08.18-.14.39-.18.62-.04.23-.05.47-.03.71.02.24.07.49.14.72.07.23.17.44.28.63.06.09.11.17.17.25.06.07.11.14.16.19.05.05.09.09.12.12.03.03.05.04.05.04,0,0,.01-.02.03-.05.02-.03.05-.07.08-.13.03-.06.07-.12.1-.2.03-.08.07-.16.1-.26.06-.19.11-.4.13-.63.02-.23.02-.47,0-.71-.02-.24-.07-.48-.13-.7-.06-.22-.15-.43-.24-.61-.09-.18-.19-.33-.26-.43-.04-.05-.08-.09-.1-.12-.02-.03-.04-.04-.04-.04Z" style="fill:#f5f8f8;"/><path d="M24.98,69.7s-.01.02-.03.05c-.02.03-.05.07-.08.13-.06.11-.14.27-.2.45-.06.19-.11.4-.12.63-.02.23,0,.47.03.71.04.24.11.48.21.7.09.22.21.43.34.6.06.09.13.16.19.23.06.07.12.13.17.18.05.05.1.08.13.11.03.03.05.04.05.04,0,0,.01-.02.03-.05.02-.03.04-.08.07-.14.03-.06.05-.13.08-.21.03-.08.05-.17.07-.26.04-.19.07-.41.07-.64,0-.23-.02-.47-.06-.71-.05-.24-.11-.47-.2-.69-.08-.22-.19-.41-.29-.58-.11-.17-.22-.31-.3-.4-.04-.05-.08-.09-.11-.11-.03-.03-.04-.04-.04-.04Z" style="fill:#f5f8f8;"/><path d="M27.15,71.33s-.01.02-.03.05c-.02.03-.04.08-.07.14-.05.12-.11.28-.16.47-.04.19-.07.41-.07.64,0,.23.04.47.1.71.06.24.15.47.27.68.12.21.25.41.4.57.07.08.14.15.21.21.07.06.13.12.19.16.05.04.11.08.14.1.03.02.05.03.05.03,0,0,.01-.02.02-.05.01-.03.04-.08.06-.14.02-.06.04-.13.06-.21.02-.08.04-.17.05-.27.03-.2.03-.42.01-.65-.02-.23-.06-.47-.13-.7-.07-.23-.15-.46-.26-.67-.1-.21-.22-.4-.35-.55-.12-.16-.24-.29-.34-.37-.05-.04-.09-.08-.12-.1-.03-.02-.05-.04-.05-.04Z" style="fill:#f5f8f8;"/><path d="M29.48,72.76s-.01.02-.02.05c-.01.03-.04.08-.06.14-.04.12-.09.29-.11.48-.03.19-.03.41,0,.64.02.23.08.47.17.7.09.23.2.46.33.66.14.2.29.38.45.53.08.07.16.14.23.2.07.06.14.1.2.14.06.04.11.07.15.09.04.02.06.03.06.03,0,0,0-.02.02-.05,0-.03.03-.08.04-.15.02-.06.03-.14.04-.22.01-.08.02-.17.02-.27,0-.2,0-.42-.05-.65-.04-.23-.11-.46-.2-.69-.09-.23-.2-.44-.32-.64-.12-.2-.26-.37-.4-.52-.14-.15-.27-.26-.37-.34-.05-.04-.1-.07-.13-.09-.03-.02-.05-.03-.05-.03Z" style="fill:#f5f8f8;"/><path d="M45.62,69.66c-3.59,0-6.51,2.92-6.51,6.51s2.92,6.51,6.51,6.51,6.51-2.92,6.51-6.51-2.92-6.51-6.51-6.51ZM43.13,70.99c-.46.56-.84,1.27-1.11,2.09h-1.25c.57-.9,1.39-1.62,2.35-2.09ZM40.37,73.84h1.45c-.14.61-.23,1.26-.25,1.95h-1.67c.05-.69.21-1.35.48-1.95ZM39.89,76.55h1.67c.02.69.11,1.34.25,1.95h-1.45c-.27-.6-.43-1.26-.48-1.95ZM40.78,79.26h1.25c.27.82.65,1.53,1.11,2.09-.97-.47-1.78-1.19-2.35-2.09ZM45.24,81.88c-1.01-.2-1.89-1.2-2.41-2.62h2.41v2.62ZM45.24,78.5h-2.65c-.15-.6-.25-1.26-.28-1.95h2.92v1.95ZM45.24,75.79h-2.92c.03-.69.12-1.35.28-1.95h2.65v1.95ZM45.24,73.08h-2.41c.52-1.42,1.4-2.42,2.41-2.62v2.62ZM51.35,75.79h-1.67c-.02-.69-.11-1.34-.25-1.95h1.45c.27.6.43,1.26.48,1.95ZM50.47,73.08h-1.24c-.27-.82-.65-1.53-1.11-2.09.97.47,1.78,1.19,2.35,2.09ZM46,70.46c1.01.2,1.89,1.2,2.41,2.62h-2.41v-2.62ZM46,73.84h2.65c.15.6.25,1.26.28,1.95h-2.92v-1.95ZM46,76.55h2.92c-.03.69-.12,1.35-.28,1.95h-2.65v-1.95ZM46,81.88v-2.62h2.41c-.52,1.42-1.4,2.42-2.41,2.62ZM48.11,81.35c.46-.56.84-1.27,1.11-2.09h1.24c-.57.9-1.39,1.62-2.35,2.09ZM50.88,78.5h-1.45c.14-.61.23-1.26.25-1.95h1.67c-.05.69-.21,1.35-.48,1.95Z" style="fill:#fff;"/></g></svg>